# xmcd CD database file generated by OrangeCD 6.3
#
# Track frame offsets:
#	150
#	12982
#	26725
#	39962
#	54575
#	68332
#	81675
#	94712
#	106537
#	120775
#	135887
#	150112
#	162767
#	178037
#	190787
#	202637
#	215537
#	227562
#	239512
#	251712
#
# Disc length: 3535 seconds
#
# Revision: 2
# Processed by: cddbd v1.5.2PL0 Copyright (c) Steve Scherf et al.
# Submitted via: OrangeCD 6.3
#
DISCID=ea0dcd14
DTITLE=Memphis Minnie - Let's Go To Town
DYEAR=1996
DGENRE=Classic Female Blues
TTITLE0=I'm Going Back Home
TTITLE1=Georgia Skin
TTITLE2=Bumble Bee Blues
TTITLE3=Meningitis Blues
TTITLE4=New Dirty Dozen
TTITLE5=Frankie Jean (That Trottin' Fool)
TTITLE6=What's The Matter With The Mill?
TTITLE7=North Memphis Blues
TTITLE8=Let's Go To Town
TTITLE9=Moaning The Blues
TTITLE10=Sylvester And His Mule Blues
TTITLE11=Joe Louis Strut
TTITLE12=Doctor Doctor Blues
TTITLE13=Nothing In Rambling
TTITLE14=In My Girlish Days
TTITLE15=Me And My Chauffeur Blues
TTITLE16=I'm Not A Bad Gal
TTITLE17=You Got To Get Out Of Here
TTITLE18=Looking The World Over
TTITLE19=Black Rat Swing
EXTD=
EXTT0=
EXTT1=
EXTT2=
EXTT3=
EXTT4=
EXTT5=
EXTT6=
EXTT7=
EXTT8=
EXTT9=
EXTT10=
EXTT11=
EXTT12=
EXTT13=
EXTT14=
EXTT15=
EXTT16=
EXTT17=
EXTT18=
EXTT19=
PLAYORDER=
